<svg xmlns="http://www.w3.org/2000/svg" viewBox="0 0 512 512" width="512" height="512">
  <defs>
    <linearGradient id="bgG" x1="0%" y1="0%" x2="100%" y2="100%">
      <stop offset="0%" style="stop-color:#111122"/>
      <stop offset="100%" style="stop-color:#0a0a1a"/>
    </linearGradient>
    <linearGradient id="shieldG" x1="0%" y1="0%" x2="0%" y2="100%">
      <stop offset="0%" style="stop-color:#a78bfa"/>
      <stop offset="100%" style="stop-color:#7c3aed"/>
    </linearGradient>
    <linearGradient id="northG" x1="0%" y1="0%" x2="0%" y2="100%">
      <stop offset="0%" style="stop-color:#ffffff"/>
      <stop offset="100%" style="stop-color:#c4b5fd"/>
    </linearGradient>
    <linearGradient id="greenG" x1="0%" y1="0%" x2="100%" y2="100%">
      <stop offset="0%" style="stop-color:#34d399"/>
      <stop offset="100%" style="stop-color:#10b981"/>
    </linearGradient>
    <linearGradient id="amberG" x1="0%" y1="0%" x2="100%" y2="100%">
      <stop offset="0%" style="stop-color:#fbbf24"/>
      <stop offset="100%" style="stop-color:#f59e0b"/>
    </linearGradient>
  </defs>
  <rect x="16" y="16" width="480" height="480" rx="96" ry="96" fill="url(#bgG)"/>
  <rect x="16" y="16" width="480" height="480" rx="96" ry="96" fill="none" stroke="#242442" stroke-width="2"/>
  <path d="M256 58 L405 118 L405 262 Q405 365 256 432 Q107 365 107 262 L107 118 Z" fill="url(#shieldG)" opacity="0.18"/>
  <path d="M256 58 L405 118 L405 262 Q405 365 256 432 Q107 365 107 262 L107 118 Z" fill="none" stroke="url(#shieldG)" stroke-width="6" stroke-linejoin="round"/>
  <circle cx="256" cy="228" r="118" fill="none" stroke="#ffffff" stroke-width="3" opacity="0.12"/>
  <polygon points="256,110 240,215 272,215" fill="url(#northG)" opacity="0.9"/>
  <polygon points="256,346 240,241 272,241" fill="#2a2a42" opacity="0.6"/>
  <polygon points="374,228 269,214 269,242" fill="#2a2a42" opacity="0.45"/>
  <polygon points="138,228 243,214 243,242" fill="#2a2a42" opacity="0.45"/>
  <circle cx="256" cy="228" r="42" fill="#0a0a1a"/>
  <circle cx="256" cy="228" r="42" fill="none" stroke="#8b5cf6" stroke-width="4"/>
  <text x="238" y="238" font-family="SF Mono, Menlo, Consolas, monospace" font-size="30" font-weight="800" fill="#34d399" text-anchor="middle">&lt;</text>
  <text x="258" y="238" font-family="SF Mono, Menlo, Consolas, monospace" font-size="30" font-weight="800" fill="#ffffff" text-anchor="middle">/</text>
  <text x="276" y="238" font-family="SF Mono, Menlo, Consolas, monospace" font-size="30" font-weight="800" fill="#34d399" text-anchor="middle">&gt;</text>
  <line x1="256" y1="96" x2="256" y2="108" stroke="#fbbf24" stroke-width="3" stroke-linecap="round"/>
  <line x1="256" y1="348" x2="256" y2="360" stroke="#3a3a5a" stroke-width="2" stroke-linecap="round"/>
  <line x1="124" y1="228" x2="136" y2="228" stroke="#3a3a5a" stroke-width="2" stroke-linecap="round"/>
  <line x1="376" y1="228" x2="388" y2="228" stroke="#3a3a5a" stroke-width="2" stroke-linecap="round"/>
  <text x="256" y="90" font-family="-apple-system, sans-serif" font-size="16" font-weight="800" fill="#fbbf24" text-anchor="middle">N</text>
  <circle cx="256" cy="395" r="20" fill="#0a0a1a"/>
  <circle cx="256" cy="395" r="20" fill="url(#greenG)" opacity="0.15"/>
  <circle cx="256" cy="395" r="20" fill="none" stroke="url(#greenG)" stroke-width="3"/>
  <path d="M246 395 L253 402 L267 388" fill="none" stroke="url(#greenG)" stroke-width="5" stroke-linecap="round" stroke-linejoin="round"/>
  <text x="195" y="472" font-family="-apple-system, BlinkMacSystemFont, 'SF Pro Display', sans-serif" font-size="34" font-weight="700" fill="#ffffff" text-anchor="middle">Review</text>
  <text x="333" y="472" font-family="-apple-system, BlinkMacSystemFont, 'SF Pro Display', sans-serif" font-size="34" font-weight="700" fill="#8b5cf6" text-anchor="middle">Helm</text>
</svg>