<svg xmlns="http://www.w3.org/2000/svg" viewBox="0 0 128 128"><rect fill="#059669" width="128" height="128" rx="6"/><path fill="#fff" d="M28 36h72c2.2 0 4 1.8 4 4v12c0 2.2-1.8 4-4 4H28c-2.2 0-4-1.8-4-4V40c0-2.2 1.8-4 4-4zm0 36h72c2.2 0 4 1.8 4 4v12c0 2.2-1.8 4-4 4H28c-2.2 0-4-1.8-4-4V76c0-2.2 1.8-4 4-4z"/><text x="38" y="51" font-family="Arial,sans-serif" font-size="14" font-weight="bold" fill="#059669">v2.1.0</text><text x="38" y="87" font-family="Arial,sans-serif" font-size="14" font-weight="bold" fill="#059669" opacity=".5">v1.0.0</text><path fill="#fff" d="M64 56v16" stroke="#fff" stroke-width="3"/><path fill="#fff" d="M60 68l4 6 4-6" stroke="#fff" stroke-width="2"/></svg>
