<svg xmlns="http://www.w3.org/2000/svg" viewBox="0 0 128 128"><path fill="#6366F1" d="M64 4C30.9 4 4 30.9 4 64s26.9 60 60 60 60-26.9 60-60S97.1 4 64 4z"/><path fill="#fff" d="M64 18c-8.3 0-15.7 2.3-22.3 6.5C35.1 28.7 30 34.6 27 42c-2.2 5.3-3 10.8-3 16v20c0 8 3.7 17.2 9.8 24.2C40.2 109.6 51.2 114 64 114s23.8-4.4 30.2-11.8C100.3 95.2 104 86 104 78V58c0-5.2-.8-10.7-3-16-3-7.4-8.1-13.3-14.7-17.5C79.7 20.3 72.3 18 64 18zm0 12c14 0 28 9 28 28v20c0 15.5-12.5 28-28 28S36 93.5 36 78V58c0-19 14-28 28-28z"/><path fill="#fff" d="M56 66l-4-4-5.6 5.6L56 77.2l21.6-21.6L72 50z"/></svg>
