<svg xmlns="http://www.w3.org/2000/svg" viewBox="0 0 128 128"><path fill="#FF3E00" d="M110.5 16.3C100.3 1.5 80.2-3.6 65.1 5.1L34.6 23.7c-6.9 4-12.1 10.2-14.8 17.5s-2.8 15.4-.2 22.6c-2.1 3.2-3.6 6.8-4.5 10.5-2.4 10.3.2 21.2 7.1 29.5C32.4 118.5 52.5 123.6 67.6 114.9l30.5-18.6c6.9-4 12.1-10.2 14.8-17.5s2.8-15.4.2-22.6c2.1-3.2 3.6-6.8 4.5-10.5 2.4-10.3-.2-21.1-7.1-29.4z"/><path fill="#fff" d="M62.1 103.2c-9.8 2.6-20.1-.8-26.1-8.8-3.5-4.7-5.1-10.5-4.2-16.3.1-.8.3-1.6.6-2.4l.7-2.1 1.9 1.4c3.8 2.8 8 4.8 12.5 6l1.2.3-.1 1.2c-.1 1.6.4 3.2 1.5 4.4 2 2.3 5.3 3.1 8.1 2l30.5-18.6c1.4-.8 2.4-2.1 2.8-3.7.4-1.6.2-3.2-.7-4.6-2-2.3-5.3-3.1-8.1-2L69 69.5c-9.8 5.9-22.5 3.4-29.5-5.7-3.5-4.7-5.1-10.5-4.2-16.3.9-5.8 4.3-10.9 9.1-14l30.5-18.6c9.8-5.9 22.5-3.4 29.5 5.7 3.5 4.7 5.1 10.5 4.2 16.3-.1.8-.3 1.6-.6 2.4l-.7 2.1-1.9-1.4c-3.8-2.8-8-4.8-12.5-6l-1.2-.3.1-1.2c.1-1.6-.4-3.2-1.5-4.4-2-2.3-5.3-3.1-8.1-2L52.7 45.7c-1.4.8-2.4 2.1-2.8 3.7-.4 1.6-.2 3.2.7 4.6 2 2.3 5.3 3.1 8.1 2L69.3 49c9.8-5.9 22.5-3.4 29.5 5.7 3.5 4.7 5.1 10.5 4.2 16.3-.9 5.8-4.3 10.9-9.1 14l-30.5 18.6-.4.2c-.3.1-.6.2-.9.4z"/></svg>
